# xmcd
#
# Track frame offsets: 
#        150
#        10802
#        28345
#        43817
#        59987
#        72860
#        92315
#        109992
#        123865
#        145530
#
# Disc length: 2206 seconds
#
# Revision: 2
# Processed by: cddbd v1.4PL0 Copyright (c) Steve Scherf et al.
# Submitted via: ExactAudioCopy v0.95a3
#
DISCID=89089c0a
DTITLE=Garth Brooks - Ropin' The Wind
DYEAR=1991
DGENRE=Country
TTITLE0=Against The Grain
TTITLE1=Rodeo
TTITLE2=What She's Doing Now
TTITLE3=Burning Bridges
TTITLE4=Papa Loved Mama
TTITLE5=Shameless
TTITLE6=Cold Shoulder
TTITLE7=We Bury The Hatchet
TTITLE8=In Lonesome Dove
TTITLE9=The River
EXTD=
EXTT0=
EXTT1=
EXTT2=
EXTT3=
EXTT4=
EXTT5=
EXTT6=
EXTT7=
EXTT8=
EXTT9=
PLAYORDER=
